<?xml version="1.0" encoding="UTF-8" standalone="no"?>
<svg xmlns="http://www.w3.org/2000/svg" width="16" height="16" version="1.1">
   <rect width="16" height="16" fill="none"/>

   <!-- Row 0: Clues (Approximate dots or simplified nums) -->
   <g opacity="0.6">
      <rect x="4" y="1" width="3" height="3" rx="0.5" ry="0.5" fill="currentColor"/>
      <!-- 2 -->
      <rect x="7" y="1" width="3" height="3" rx="0.5" ry="0.5" fill="currentColor"/>
      <!-- 2 -->
      <rect x="10" y="1" width="3" height="3" rx="0.5" ry="0.5" fill="currentColor"/>
      <!-- 1 -->
   </g>

   <!-- Row 1 -->
   <rect x="1" y="4" width="3" height="3" rx="0.5" ry="0.5" fill="currentColor" opacity="0.6"/>
   <!-- 2 -->
   <rect x="4" y="4" width="3" height="3" rx="0.5" ry="0.5" fill="currentColor"/>
   <!-- Painted -->
   <rect x="7" y="4" width="3" height="3" rx="0.5" ry="0.5" fill="currentColor"/>
   <!-- Painted -->
   <rect x="10" y="4" width="3" height="3" rx="0.5" ry="0.5" fill="none" stroke="currentColor" stroke-width="0.5"/>
   <!-- Unpainted -->

   <!-- Row 2 -->
   <rect x="1" y="7" width="3" height="3" rx="0.5" ry="0.5" fill="currentColor" opacity="0.6"/>
   <!-- 0 -->
   <rect x="4" y="7" width="3" height="3" rx="0.5" ry="0.5" fill="none" stroke="currentColor" stroke-width="0.5"/>
   <rect x="7" y="7" width="3" height="3" rx="0.5" ry="0.5" fill="none" stroke="currentColor" stroke-width="0.5"/>
   <rect x="10" y="7" width="3" height="3" rx="0.5" ry="0.5" fill="none" stroke="currentColor" stroke-width="0.5"/>

   <!-- Row 3 -->
   <rect x="1" y="10" width="3" height="3" rx="0.5" ry="0.5" fill="currentColor" opacity="0.6"/>
   <!-- 3 -->
   <rect x="4" y="10" width="3" height="3" rx="0.5" ry="0.5" fill="currentColor"/>
   <rect x="7" y="10" width="3" height="3" rx="0.5" ry="0.5" fill="currentColor"/>
   <rect x="10" y="10" width="3" height="3" rx="0.5" ry="0.5" fill="currentColor"/>
</svg>
